<svg width="21" height="20" viewBox="0 0 21 20" fill="none" xmlns="http://www.w3.org/2000/svg">
<g id="vuesax/bold/sun">
<g id="sun">
<path id="Vector" d="M10.5003 15.8334C13.722 15.8334 16.3337 13.2217 16.3337 10.0001C16.3337 6.77842 13.722 4.16675 10.5003 4.16675C7.27866 4.16675 4.66699 6.77842 4.66699 10.0001C4.66699 13.2217 7.27866 15.8334 10.5003 15.8334Z" fill="#060709"/>
<path id="Vector_2" d="M10.4997 19.1333C10.0413 19.1333 9.66634 18.7916 9.66634 18.3333V18.2666C9.66634 17.8083 10.0413 17.4333 10.4997 17.4333C10.958 17.4333 11.333 17.8083 11.333 18.2666C11.333 18.7249 10.958 19.1333 10.4997 19.1333ZM16.4497 16.7833C16.233 16.7833 16.0247 16.6999 15.858 16.5416L15.7497 16.4333C15.4247 16.1083 15.4247 15.5833 15.7497 15.2583C16.0747 14.9333 16.5997 14.9333 16.9247 15.2583L17.033 15.3666C17.358 15.6916 17.358 16.2166 17.033 16.5416C16.8747 16.6999 16.6663 16.7833 16.4497 16.7833ZM4.54967 16.7833C4.33301 16.7833 4.12467 16.6999 3.95801 16.5416C3.63301 16.2166 3.63301 15.6916 3.95801 15.3666L4.06634 15.2583C4.39134 14.9333 4.91634 14.9333 5.24134 15.2583C5.56634 15.5833 5.56634 16.1083 5.24134 16.4333L5.13301 16.5416C4.97467 16.6999 4.75801 16.7833 4.54967 16.7833ZM18.833 10.8333H18.7663C18.308 10.8333 17.933 10.4583 17.933 9.99992C17.933 9.54158 18.308 9.16658 18.7663 9.16658C19.2247 9.16658 19.633 9.54158 19.633 9.99992C19.633 10.4583 19.2913 10.8333 18.833 10.8333ZM2.23301 10.8333H2.16634C1.70801 10.8333 1.33301 10.4583 1.33301 9.99992C1.33301 9.54158 1.70801 9.16658 2.16634 9.16658C2.62467 9.16658 3.03301 9.54158 3.03301 9.99992C3.03301 10.4583 2.69134 10.8333 2.23301 10.8333ZM16.3413 4.99158C16.1247 4.99158 15.9163 4.90825 15.7497 4.74992C15.4247 4.42492 15.4247 3.89992 15.7497 3.57492L15.858 3.46659C16.183 3.14159 16.708 3.14159 17.033 3.46659C17.358 3.79158 17.358 4.31659 17.033 4.64159L16.9247 4.74992C16.7663 4.90825 16.558 4.99158 16.3413 4.99158ZM4.65801 4.99158C4.44134 4.99158 4.23301 4.90825 4.06634 4.74992L3.95801 4.63325C3.63301 4.30825 3.63301 3.78325 3.95801 3.45825C4.28301 3.13325 4.80801 3.13325 5.13301 3.45825L5.24134 3.56659C5.56634 3.89159 5.56634 4.41659 5.24134 4.74159C5.08301 4.90825 4.86634 4.99158 4.65801 4.99158ZM10.4997 2.53325C10.0413 2.53325 9.66634 2.19159 9.66634 1.73325V1.66659C9.66634 1.20825 10.0413 0.833252 10.4997 0.833252C10.958 0.833252 11.333 1.20825 11.333 1.66659C11.333 2.12492 10.958 2.53325 10.4997 2.53325Z" fill="#060709"/>
</g>
</g>
</svg>
