<svg width="23" height="22" viewBox="0 0 23 22" fill="none" xmlns="http://www.w3.org/2000/svg">
<g id="fluent-emoji-high-contrast:sleeping-face">
<g id="Group">
<path id="Vector" d="M21.0611 6.72581C21.5643 8.03894 21.8104 9.48887 21.8104 10.9993C21.8104 13.7912 20.9676 16.3756 19.2234 18.2703C17.4702 20.174 14.8708 21.3111 11.4993 21.3111C8.12781 21.3111 5.52769 20.174 3.77456 18.2703C2.03038 16.3762 1.1875 13.7912 1.1875 10.9993C1.1875 8.20737 2.03038 5.62237 3.77456 3.72831C5.52769 1.82462 8.12781 0.6875 11.5 0.6875C13.3033 0.6875 14.8859 1.01269 16.2362 1.60669C16.0354 1.74117 15.8735 1.92614 15.7668 2.143C15.6601 2.35986 15.6124 2.60098 15.6284 2.84212C14.4755 2.34437 13.1026 2.0625 11.5 2.0625C8.45438 2.0625 6.242 3.08 4.78725 4.65987C3.32219 6.24869 2.5625 8.4755 2.5625 10.9986C2.5625 13.5224 3.32288 15.7492 4.78656 17.3387C6.24131 18.9186 8.453 19.9361 11.4993 19.9361C14.5449 19.9361 16.7573 18.9186 18.2121 17.3387C19.6758 15.7499 20.4361 13.5231 20.4361 10.9993C20.4361 9.58444 20.1969 8.26306 19.7287 7.09431L20.7709 6.83375C20.8741 6.80831 20.9703 6.77187 21.0611 6.72581Z" fill="#060709"/>
<path id="Vector_2" d="M4.82629 11.2014C4.95522 11.0725 5.13005 11.0001 5.31235 11.0001C5.49465 11.0001 5.66949 11.0725 5.79842 11.2014C5.89673 11.299 6.4536 11.6874 7.37485 11.6874C8.2961 11.6874 8.85298 11.299 8.95129 11.2014C9.08095 11.0761 9.25462 11.0068 9.43488 11.0084C9.61514 11.01 9.78757 11.0823 9.91504 11.2097C10.0425 11.3372 10.1148 11.5096 10.1164 11.6899C10.1179 11.8702 10.0486 12.0438 9.92342 12.1735C9.56248 12.5344 8.6536 13.0624 7.37485 13.0624C6.0961 13.0624 5.18723 12.5344 4.82629 12.1735C4.6974 12.0446 4.625 11.8697 4.625 11.6874C4.625 11.5051 4.6974 11.3303 4.82629 11.2014ZM13.0763 11.2014C13.2052 11.0725 13.3801 11.0001 13.5624 11.0001C13.7447 11.0001 13.9195 11.0725 14.0484 11.2014C14.146 11.299 14.7036 11.6874 15.6249 11.6874C16.5461 11.6874 17.103 11.299 17.2013 11.2014C17.331 11.0761 17.5046 11.0068 17.6849 11.0084C17.8651 11.01 18.0376 11.0823 18.165 11.2097C18.2925 11.3372 18.3648 11.5096 18.3664 11.6899C18.3679 11.8702 18.2986 12.0438 18.1734 12.1735C17.8125 12.5344 16.9036 13.0624 15.6249 13.0624C14.3461 13.0624 13.4372 12.5344 13.0763 12.1735C12.9474 12.0446 12.875 11.8697 12.875 11.6874C12.875 11.5051 12.9474 11.3303 13.0763 11.2014ZM10.1249 16.4999C10.1249 16.1353 10.2697 15.7855 10.5276 15.5277C10.7854 15.2698 11.1352 15.1249 11.4999 15.1249C11.8645 15.1249 12.2143 15.2698 12.4721 15.5277C12.73 15.7855 12.8749 16.1353 12.8749 16.4999C12.8749 16.8646 12.73 17.2143 12.4721 17.4722C12.2143 17.7301 11.8645 17.8749 11.4999 17.8749C11.1352 17.8749 10.7854 17.7301 10.5276 17.4722C10.2697 17.2143 10.1249 16.8646 10.1249 16.4999ZM20.3645 2.36974C20.4231 2.2522 20.4469 2.12032 20.4329 1.9897C20.419 1.85909 20.3679 1.7352 20.2857 1.63271C20.2036 1.53022 20.0938 1.45342 19.9693 1.41139C19.8448 1.36936 19.711 1.36386 19.5835 1.39555L16.8335 2.08305C16.7446 2.10366 16.6606 2.14178 16.5866 2.19517C16.5126 2.24856 16.4499 2.31616 16.4023 2.39403C16.3547 2.47189 16.323 2.55846 16.3092 2.64868C16.2954 2.7389 16.2997 2.83097 16.3218 2.91952C16.3439 3.00807 16.3835 3.09133 16.4381 3.16443C16.4928 3.23754 16.5614 3.29903 16.6401 3.34532C16.7188 3.39161 16.8059 3.42177 16.8963 3.43404C16.9868 3.44631 17.0788 3.44045 17.1669 3.4168L18.4663 3.09161L17.0727 5.88011C17.0141 5.99765 16.9903 6.12953 17.0043 6.26014C17.0182 6.39076 17.0693 6.51464 17.1515 6.61713C17.2336 6.71962 17.3435 6.79643 17.4679 6.83846C17.5924 6.88049 17.7262 6.88599 17.8537 6.8543L20.6037 6.1668C20.6926 6.14618 20.7766 6.10807 20.8506 6.05467C20.9246 6.00128 20.9873 5.93368 21.0349 5.85582C21.0825 5.77796 21.1142 5.69139 21.128 5.60117C21.1418 5.51094 21.1376 5.41887 21.1154 5.33032C21.0933 5.24177 21.0537 5.15852 20.9991 5.08541C20.9444 5.01231 20.8758 4.95082 20.7971 4.90453C20.7184 4.85824 20.6313 4.82808 20.5409 4.81581C20.4504 4.80354 20.3584 4.8094 20.2703 4.83305L18.9709 5.15824L20.3645 2.36974ZM13.9061 4.12492C13.8149 4.12492 13.7275 4.16114 13.663 4.22561C13.5986 4.29007 13.5624 4.37751 13.5624 4.46867C13.5624 4.55984 13.5986 4.64728 13.663 4.71174C13.7275 4.77621 13.8149 4.81242 13.9061 4.81242H15.2811L13.6311 7.01242C13.5928 7.06349 13.5695 7.12422 13.5637 7.1878C13.558 7.25138 13.5701 7.3153 13.5986 7.3724C13.6272 7.4295 13.6711 7.47752 13.7254 7.51108C13.7797 7.54465 13.8423 7.56242 13.9061 7.56242H15.9686C16.0598 7.56242 16.1472 7.52621 16.2117 7.46174C16.2761 7.39728 16.3124 7.30984 16.3124 7.21867C16.3124 7.12751 16.2761 7.04007 16.2117 6.97561C16.1472 6.91114 16.0598 6.87492 15.9686 6.87492H14.5936L16.2436 4.67492C16.2819 4.62385 16.3052 4.56312 16.311 4.49954C16.3167 4.43596 16.3046 4.37204 16.2761 4.31494C16.2475 4.25784 16.2036 4.20982 16.1493 4.17626C16.095 4.1427 16.0324 4.12492 15.9686 4.12492H13.9061ZM10.1427 5.73505C10.1716 5.64866 10.2336 5.57726 10.315 5.53653C10.3965 5.49579 10.4908 5.48906 10.5772 5.5178L12.6397 6.2053C12.7026 6.22633 12.7581 6.26509 12.7994 6.31692C12.8407 6.36874 12.8662 6.43142 12.8728 6.49739C12.8793 6.56337 12.8666 6.62982 12.8363 6.68876C12.8059 6.74769 12.7591 6.79659 12.7016 6.82955L10.9636 7.82367L12.2974 8.26849C12.3413 8.28182 12.3822 8.30384 12.4175 8.33324C12.4529 8.36264 12.4819 8.39883 12.503 8.43967C12.5241 8.4805 12.5368 8.52515 12.5404 8.57098C12.5439 8.61681 12.5382 8.66288 12.5237 8.70647C12.5091 8.75006 12.4859 8.79029 12.4555 8.82477C12.4251 8.85925 12.3881 8.88728 12.3467 8.90721C12.3053 8.92714 12.2603 8.93856 12.2144 8.9408C12.1685 8.94304 12.1226 8.93605 12.0794 8.92024L10.0169 8.23274C9.95404 8.21171 9.89859 8.17294 9.85724 8.12112C9.81589 8.06929 9.79042 8.00662 9.78388 7.94064C9.77734 7.87467 9.79002 7.80821 9.82039 7.74928C9.85075 7.69034 9.89752 7.64145 9.95504 7.60849L11.6924 6.61367L10.3586 6.16886C10.2723 6.13986 10.2011 6.07783 10.1605 5.99638C10.1199 5.91493 10.1133 5.8207 10.142 5.73436L10.1427 5.73505Z" fill="#060709"/>
</g>
</g>
</svg>
